<svg xmlns="http://www.w3.org/2000/svg" viewBox="0 0 1024 1024" fill="#0F172A">
  <g transform="translate(194.6 234.9) scale(0.79360 0.79360)">
    <path d="M114.2 2.1c3.4 4.7 16.2 32 21.2 44.9l3.2 7.5c.7 1.6 2.3 5.9 3.5 9.5 1.1 3.6 2.7 7.8 3.4 9.5.7 1.6 2.1 5.9 3 9.5s2 7.2 2.5 8.1 1.8 5.6 3 10.5c1.3 4.9 2.6 9.3 3 9.9s1.7 6.6 2.9 13.5c1.3 6.9 2.6 13.4 3.1 14.5a160 160 0 0 1 4.1 22.5c.6 4.1 1.5 8.4 2 9.5a545 545 0 0 1 4.9 50.1c0 2.8.6 5.6 1.3 6.3 1.7 1.7 1.8 90.6 0 94.2-.6 1.3-1.6 9.8-2.2 18.9-1.4 19.9-3 33.8-4.1 36.5-.4 1.1-1.8 9.2-3 18-1.3 8.8-2.7 16.7-3.1 17.5s-1.7 6.8-2.9 13.3a92 92 0 0 1-3 13.5c-.5 1-1.9 6.2-3.1 11.6a71 71 0 0 1-3.6 12.5c-.7 1.4-1.3 3.3-1.3 4.1 0 2.5-2.9 13.2-4.5 16.6-.8 1.7-2 5.5-2.6 8.5s-2.1 7.6-3.3 10.4a63 63 0 0 0-3.6 10 33 33 0 0 1-2 6c-.4.5-1.8 4.1-3 8a60 60 0 0 1-3 8c-.4.5-1.7 3.9-3 7.5-1.2 3.6-2.6 7-3.1 7.6a32 32 0 0 0-2.8 6.5c-1 3-2.5 6.7-3.4 8.4-3.7 7.4-8.7 18.4-8.7 19.2a628 628 0 0 1-27.5 52.8l-10 17-8.5 14c-.9 1.6-3.7 5.9-6.1 9.5l-5.9 9.2a90 90 0 0 1-6.1 9 206 206 0 0 1-13.8 19.6c-4.5 5.7-8.1 10.6-8.1 10.9 0 .8-8.2 10.4-14.9 17.6-3 3.1-5.2 5.7-4.9 5.7 1.2 0 6.5-2.7 10.5-5.3l10-5.9 10.3-5.6 12.5-6.7 11-5.8c1.7-.9 6.2-3.1 10-4.8l11-5c2.2-1 6.5-2.6 9.5-3.6a42 42 0 0 0 7.5-2.9c1.1-.7 4.9-2 8.5-3s7-2 7.5-2.5a76 76 0 0 1 10-2.9c5-1.3 9.5-2.6 10-3s6.4-1.8 13-3 12.9-2.6 14-3.1c2.4-1.1 27.6-4.9 32.5-4.9 2 0 4-.4 4.5-.9 4-3.7 101.6-3.8 110-.1 1.1.4 4.7 1.1 8 1.4a211 211 0 0 1 37.5 7.2c4.1.9 8.9 2.2 10.5 2.9 1.7.7 6.4 2.2 10.5 3.5a70 70 0 0 1 15 6c10.1 4.2 20 9.3 20 10.3q0 .9.7.4c.9-1 1.3-5.7.4-5.7-.4 0-1.3-10.7-2-23.8-.7-13-1.7-24.2-2.1-24.7s-.8-4-.8-7.7c0-3.6-.3-7.1-.7-7.7s-.6-3.9-.5-7.4c.1-3.4 0-6.9-.3-7.7a209 209 0 0 1-1.8-17c-.6-8.5-1.6-16-2.1-16.7a8 8 0 0 1-.7-4.5c.1-1.8-.1-4-.4-4.8a235 235 0 0 1-2.2-18c-1-9.1-2.2-17.1-2.7-17.8s-.8-2.8-.5-4.7.2-3.5-.2-3.5a76 76 0 0 1-2.6-14.8 91 91 0 0 0-2.7-15.9 6 6 0 0 1-.7-3.5c.2-1.3.1-2.8-.3-3.3-.3-.6-1.3-6.1-2.2-12.3s-2.1-12.1-2.6-13-1.8-7.8-3-15.2c-1.3-7.4-2.6-14.2-3.1-15s-1.8-6.9-3-13.5-2.6-12.5-2.9-13c-.4-.6-1.8-6-3-12a93 93 0 0 0-3-12c-.4-.6-1.8-5.3-3-10.5s-2.5-10-2.9-10.5a70 70 0 0 1-3-10c-1.2-5-2.9-10.4-3.6-12-.7-1.7-2.1-5.9-3.1-9.5s-2.1-7-2.4-7.5a78 78 0 0 1-3-8.5c-1.2-4.1-2.5-8-3-8.5s-1.7-4.2-3-8a44 44 0 0 0-3.1-8.1c-.5-.6-1.8-4-2.9-7.5a90 90 0 0 0-3.4-9.4 52 52 0 0 1-4.6-12q-.1-1.4-.8-1.5c-.4 0-1.4-1.7-2.1-3.8s-2.6-6.6-4.3-10.2l-5.6-12.4a736 736 0 0 0-39.2-72.7c0-.5-2.3-4.2-5-8.3s-5-7.7-5-8c0-.8-6.5-10.1-9.7-13.9a12 12 0 0 1-2.3-3.9 54 54 0 0 0-6-9c-3.3-4.3-6-8.3-6-8.8q0-1-1-1-.9-.1-1-1.1c0-.5-3.6-5.5-8-11s-8-10.3-8-10.8-1.3-2.1-3-3.4c-1.6-1.4-3-2.9-3-3.4-.2-4.6-77.1-81.4-84.5-84.3-1.1-.4-3.1-2-4.5-3.5-3.7-4-7.1-5.7-4.8-2.4m166.6 1.3C282 5 283 6.9 283 7.7s1.1 3 2.3 5.1c1.3 2 3.4 5.7 4.5 8.2l3.1 6a508 508 0 0 1 15.6 34.5c.9 2.7 2 5.4 2.4 6 .5.5 1.9 3.9 3.1 7.5s2.6 7 3.1 7.6 1.8 4.2 3 8 2.5 7.3 2.9 7.9c.4.5 1.8 4.4 3 8.5s2.6 7.9 3 8.5a79 79 0 0 1 2.9 9c1.3 4.4 2.9 9.3 3.6 11s2.1 5.9 3 9.5 2 6.9 2.5 7.5 1.8 5 3 10a70 70 0 0 0 3 10c.4.5 1.7 5 2.9 10s2.6 9.7 3 10.5c.5.9 1.8 6 3 11.5s2.7 10.9 3.2 12c1.1 2.2 4.5 15.8 8.6 34.5a158 158 0 0 0 3.3 13.1c.4.9 1.8 6.5 3 12.5s2.5 11.8 3 12.9a82 82 0 0 1 2.5 10.5 127 127 0 0 0 2.6 12.4 93 93 0 0 1 3.4 15.1c.9 5.5 1.9 10.7 2.2 11.5s.5 2.1.4 2.8q-.1 1.4.7 2.5c.6.7 1.5 5.4 2.2 10.5a34 34 0 0 0 2.1 9.7q.6.6.2 2.5c-.3 1.1-.2 2.8.2 3.7s.9 2.7 1 3.8.4 2.7.7 3.5c.4.8 1.2 5.1 1.8 9.5a72 72 0 0 0 2.6 12.5 574 574 0 0 1 5.8 36.1 154 154 0 0 1 3.1 19.9c1 8.5 2.2 16 2.7 16.7s.9 2.5.7 4c-.1 1.5.1 3.5.4 4.3s1.3 9.4 2.2 19 2.1 18.4 2.6 19.5c.8 2 1.9 11.6 4 35.5.5 6.9 1.4 13.2 1.8 14s1.9 15.1 3.2 31.7c2.4 30.2 2.4 30.2 8.4 30.7L460 633a116 116 0 0 1 20.4 2.1c.6.5 2.4.9 4.2.9 4.2 0 26.3 3.7 28.9 4.9 1.1.5 6.5 1.8 12 3s10.9 2.6 12 3.1c1.8.8 12.4 4.6 15 5.4.6.1 2.7 1 4.9 1.9 2.1.9 4.1 1.7 4.5 1.7.9 0 25.9 12.7 34.4 17.4 6.8 3.8 6.8 3.8 6.2-2.5-.4-3.5-1-7.3-1.5-8.4s-1.8-10.1-3-20-2.5-18.9-3-20-1.8-9.6-3.1-19c-1.2-9.3-2.5-17.7-3-18.5s-1.8-8.5-3-17-2.5-16-2.9-16.5-1.5-5.7-2.4-11.5a128 128 0 0 0-2.3-12c-.3-.8-.5-2.3-.4-3.3s-.2-2.4-.7-3-1.5-4.6-2.2-8.7a82 82 0 0 0-2.1-11.4q.1-1-.5-2.5a180 180 0 0 0-5.1-20.1c-.3-.8-.5-1.9-.4-2.4q.1-1-.5-2.5c-.4-.9-.9-2.3-1-3.1-1.1-5.5-3.6-14.8-4.4-16.3q-1-1.7-.4-2.8c.3-.5 0-1.6-.6-2.4q-1-1.3-.5-1.5t-.2-1.3c-.5-.6-1.6-3.9-2.3-7.2s-1.8-6.6-2.3-7.3q-.8-1-.2-1.2t-.2-1.3c-.5-.6-1.8-4.8-2.9-9.2s-2.3-8.3-2.8-8.6q-.7-.7-.2-1.7t-.3-1.6c-.5-.3-1.7-3.8-2.6-7.8s-2.2-7.9-2.8-8.6q-.8-1-.2-1.2t-.3-1.3c-.5-.6-1.8-4.1-2.7-7.7s-2.1-7-2.6-7.5a42 42 0 0 1-2.4-7c-1-3.3-2.3-7.1-3.1-8.5-.7-1.4-2.3-5.7-3.5-9.5a50 50 0 0 0-3-8 50 50 0 0 1-2.8-7.5 77 77 0 0 0-4.1-10.1c-1.1-2-2-4.2-2-4.8 0-.7-1.1-3.6-2.4-6.4l-5-10.8-2.6-6.2a536 536 0 0 0-30.3-59.9c-.3-1-2.2-4.3-4.2-7.3a56 56 0 0 1-3.5-6.1c0-.2-1.6-2.8-3.5-5.7a25 25 0 0 1-3.5-6.4q-.1-1.2-1-1.3c-.6 0-1.5-1.2-2.1-2.7a41 41 0 0 0-4.4-7.4c-1.9-2.5-3.5-5-3.5-5.4s-2.7-4.5-6-9.1-6-8.6-6-9.1-1.3-2.4-2.8-4.3a322 322 0 0 1-14.6-19.5A241 241 0 0 0 411 139a333 333 0 0 0-22.7-28.4A236 236 0 0 1 374 93.1c0-.5-2.2-2.9-5-5.5s-5-5.1-5-5.7c0-1.5-56.6-57.9-58.1-57.9a35 35 0 0 1-7.9-6.3C287.7 8 278.2.1 280.8 3.4m163.1 24.8a168 168 0 0 1 10 18.8 639 639 0 0 1 24.3 52.5c1 1.6 1.8 3.6 1.8 4.4 0 .7 1 3.4 2.3 6a90 90 0 0 1 4.2 10.6 59 59 0 0 0 3 8c.7 1.1 2.1 4.5 3 7.5 1 3 2.1 5.9 2.5 6.5s1.7 4.1 3 8c1.2 3.8 2.5 7.4 3 8s1.8 4.4 3 8.5 2.6 7.9 3 8.5 1.7 4.1 2.9 8c1.2 3.8 2.9 8.3 3.6 10s2.1 5.9 3.1 9.5 2.1 7 2.5 7.5c.7 1 6.1 16.3 9.9 28 2.2 6.7 5.8 17.2 6.7 19.5l.8 2 .8 2c.3.8 1.4 4.2 2.3 7.5a29 29 0 0 0 3.7 9.1q-.2.4.2 1.6l2.1 7.3a42 42 0 0 0 3.3 8.7l.5 2 2.1 7.3a76 76 0 0 0 3 10c0 .5.6 2 1.3 3.2a9 9 0 0 1 1.2 3.7c0 .8.5 2.7 1.2 4.3a51 51 0 0 1 2.3 6.8l1.3 3.8c.7 1.6 1.2 3.4 1.2 4.2s.5 2.6 1.2 4.2c.6 1.5 1.2 3 1.2 3.3l.9 1.7q.8 1.2.2 2.2-.4.9.4 1.5c.5.3 1.5 3 2.1 5.8a27 27 0 0 0 2.1 6.4q.8 1 .3 1.7t.2 1.9l1 1.8a37 37 0 0 1 2.9 9.7c.4 2.4 1.1 4.3 1.7 4.3q1 .1.5 1.4t.3 2.2c.4.5 1.5 4.3 2.5 8.4a58 58 0 0 0 2.5 8.5c.4.5 1.7 5.3 3 10.5s2.6 9.9 3 10.5 1.7 5.3 2.9 10.5 2.6 10.4 3.1 11.5 1.9 6.3 3 11.5 2.5 10.2 2.9 11a92 92 0 0 1 3.1 12.5 76 76 0 0 0 3.1 12c.4.5 1.7 6.1 2.9 12.4 1.2 6.2 2.5 12.1 3 13s1.8 7 3 13.6 2.5 12.8 3 13.7 1.9 7.5 3 14.5 2.5 13.7 3.1 14.8c.8 1.7 1.7 7.2 4.5 27.5.9 6.2 1.8 7 8.3 7.1 10.1.1 55.7 7.5 60.5 9.7 1.2.6 6.3 2 11.5 3.2s10.2 2.6 11 3c.9.5 5 1.9 9.1 3.1s8 2.5 8.5 2.9 3.9 1.8 7.5 3c7.5 2.5 33.6 15.4 39.4 19.3 2.1 1.5 4.4 2.7 5.1 2.7s2.9 1.4 5 3c4.2 3.4 5.9 3.2 2.8-.3-1.1-1.2-3-6-4.2-10.7a94 94 0 0 0-3.2-10.2c-.4-.9-1.8-5.9-3-11a72 72 0 0 0-2.9-10.3c-.4-.6-1.7-5.3-2.9-10.5a94 94 0 0 0-3.1-11.2c-.5-.9-1.8-5.6-3-10.5a95 95 0 0 0-3-10.8c-.6-1.1-1.9-6.1-3.1-11a48 48 0 0 0-2.9-10c-.4-.6-1.5-4.6-2.5-9s-2.3-9.4-3-11c-.7-1.7-2.2-6.8-3.4-11.5-1.3-4.7-2.6-9.3-3.1-10.2a68 68 0 0 1-3-9.8 68 68 0 0 0-3-9.8c-.6-.9-2.1-5.5-3.5-10.2q-3.3-11.5-6.5-20.5a7 7 0 0 1-.6-2.6 5 5 0 0 0-1-2 24 24 0 0 1-2.4-6.2c-.7-2.6-1.6-5-2.1-5.3s-.6-1.1-.3-1.8a2 2 0 0 0-.5-2.1q-1-.6-.6-1.5t-.5-1.5c-.5-.3-1-1.2-1-1.9 0-.8-.8-3.1-1.7-5.2l-1.8-4.9c-.1-.6-.9-2.7-1.8-4.7a22 22 0 0 1-1.7-5c0-.8-.7-2.4-1.6-3.6-.8-1.2-1.2-2.2-.8-2.2q.5-.1-.3-1.3c-.5-.6-1.8-3.8-2.8-7-1.1-3.1-2.3-5.7-2.8-5.7q-.8-.2-.4-1.5t-.3-2c-.5-.3-1.4-2.2-2-4.3-1.1-3.4-2.4-6.3-8.5-19.7l-4.1-9.5a1384 1384 0 0 0-41.6-84.2L655 274l-2.4-4c-2.7-4.9-6.3-10.8-12.3-20.2a92 92 0 0 1-5.3-8.6c0-.2-1.8-3.1-4-6.3a32 32 0 0 1-4-6.9q-.1-.9-1-1-1-.2-1.9-2.3c-.5-1.2-3.6-5.9-7-10.5a80 80 0 0 1-6.1-9c0-.5-1.5-2.6-3.2-4.8a64 64 0 0 1-9.8-13.3q-.2-1-2-2.1-1.8-1-2-2.3c0-.7-4.1-6.2-9.1-12.2-5-6.1-9.9-12.2-10.8-13.7-.9-1.4-7.5-9.2-14.6-17.3a237 237 0 0 1-14.2-16.9c-.7-1.2-3.7-4.6-6.8-7.5s-5.5-5.7-5.5-6.2c0-1.6-59.8-60.9-61.4-60.9q-1.4 0-1.8-.8c-.4-.8-28.6-25.2-29.2-25.2-.3 0 1.2 2.8 3.3 6.2"/>
  </g>
</svg>
