<svg xmlns="http://www.w3.org/2000/svg" version="1.1" viewBox="0.00 0.00 1024.00 1024.00">

<clipPath id="clipping-path-1">
<path d="
  M 722.30 625.26
  C 732.66 623.10 746.81 618.35 751.98 616.70
  Q 756.54 615.24 761.49 612.25
  Q 764.53 610.41 772.81 607.54
  Q 774.02 607.12 776.50 605.73
  Q 792.36 596.83 808.87 582.88
  Q 810.11 581.83 810.65 580.93
  A 0.29 0.29 0.0 0 0 810.30 580.52
  Q 809.19 580.96 787.53 589.49
  Q 782.51 591.47 780.19 591.96
  Q 767.64 594.60 754.71 598.13
  Q 751.95 598.88 741.25 599.87
  Q 734.49 600.50 727.81 601.60
  Q 716.45 603.48 704.00 603.37
  Q 691.47 603.25 678.96 602.94
  C 659.68 601.82 644.63 598.91 624.93 595.61
  Q 617.44 594.36 612.60 593.12
  C 603.07 590.66 593.42 588.45 582.22 585.16
  Q 574.28 582.83 560.08 578.98
  Q 555.45 577.72 533.26 571.09
  Q 517.80 566.47 506.30 563.95
  Q 475.41 557.20 449.16 553.16
  C 438.79 551.57 427.58 551.33 418.25 550.85
  Q 395.30 549.68 373.01 551.47
  Q 368.52 551.83 361.54 553.44
  Q 356.35 554.63 350.75 555.32
  Q 340.83 556.55 333.68 558.33
  C 325.30 560.41 313.80 565.38 306.70 567.72
  Q 297.09 570.88 290.50 574.74
  Q 286.88 576.86 279.48 580.97
  Q 278.33 581.61 276.87 582.89
  A 0.29 0.28 12.0 0 0 277.18 583.36
  L 281.87 581.26
  A 3.42 3.09 24.7 0 1 282.54 581.05
  Q 288.85 579.88 308.11 576.45
  Q 317.81 574.73 327.46 574.20
  Q 355.77 572.65 357.75 572.59
  Q 378.61 571.95 404.75 574.01
  Q 410.13 574.44 416.53 575.42
  Q 426.79 577.00 459.02 583.60
  C 474.54 586.78 490.86 591.58 503.37 595.40
  Q 530.99 603.82 561.36 613.15
  Q 578.80 618.50 608.19 624.71
  Q 615.10 626.16 626.22 627.62
  Q 641.72 629.64 644.34 629.85
  Q 672.95 632.12 702.27 629.13
  Q 710.15 628.32 722.30 625.26
  Z" data-index="1"></path>
</clipPath>
<g stroke-width="5.00" fill="none" stroke-linecap="butt" clip-path="url(#clipping-path-1)">
<path stroke="#2ab3e5" vector-effect="non-scaling-stroke" d="
  M 678.96 602.94
  Q 684.04 603.77 689.20 603.99
  Q 696.21 604.29 698.56 605.06
  C 703.16 606.58 709.60 609.69 712.23 614.06
  Q 715.25 619.08 720.49 621.94
  Q 722.29 622.93 722.30 625.26" data-index="2"></path>
</g>
<g>
<path fill="#212121" d="
  M 390.47 414.02
  A 0.40 0.40 0.0 0 1 390.20 413.41
  C 392.76 409.45 395.98 407.18 401.10 406.80
  C 413.94 405.85 425.22 406.14 438.25 405.55
  C 460.81 404.53 481.69 404.29 505.99 404.47
  Q 511.28 404.50 518.94 406.91
  Q 536.08 412.31 542.51 414.14
  A 1.53 1.53 0.0 0 0 544.16 413.58
  L 556.64 396.65
  A 0.44 0.43 29.1 0 0 556.45 395.99
  Q 545.68 391.66 534.90 389.42
  Q 530.13 388.43 521.25 389.07
  Q 479.93 392.06 420.31 396.63
  Q 419.02 396.73 417.49 396.63
  A 0.70 0.70 0.0 0 1 416.99 395.49
  Q 420.83 390.78 424.99 386.24
  C 430.71 379.98 435.14 379.59 444.28 378.47
  Q 479.06 374.18 527.51 371.31
  C 538.56 370.65 546.55 371.50 557.13 374.97
  Q 562.53 376.74 583.49 383.31
  A 1.10 1.10 0.0 0 0 584.87 382.60
  L 586.58 377.30
  A 0.87 0.87 0.0 0 0 585.94 376.18
  L 571.58 372.86
  A 0.52 0.52 0.0 0 1 571.38 371.94
  Q 574.15 369.76 577.47 367.67
  C 585.16 362.85 593.63 365.03 602.35 368.00
  Q 610.16 370.66 618.37 373.47
  A 2.36 2.35 -69.0 0 1 619.77 376.63
  L 618.57 379.44
  A 3.07 3.07 0.0 0 1 615.05 381.23
  L 597.99 377.29
  A 1.06 1.06 0.0 0 0 596.72 378.08
  L 594.73 386.68
  A 0.87 0.87 0.0 0 0 595.30 387.70
  Q 612.92 393.63 637.81 402.49
  Q 640.71 403.52 642.67 401.51
  Q 646.23 397.88 652.98 391.95
  Q 657.18 388.27 662.23 390.27
  Q 663.91 390.94 681.33 396.41
  Q 682.91 396.91 684.22 397.58
  A 1.63 1.62 -64.9 0 1 684.97 399.66
  L 678.66 414.42
  A 1.29 1.28 21.7 0 0 679.40 416.13
  C 687.12 418.96 693.81 420.89 698.15 428.62
  Q 704.20 439.41 707.15 444.34
  C 709.04 447.49 710.34 448.50 713.97 449.63
  Q 717.31 450.66 754.69 462.90
  Q 759.91 464.61 760.05 469.89
  Q 760.23 476.68 760.47 483.44
  A 0.92 0.91 -82.0 0 0 761.08 484.26
  Q 766.97 486.22 775.12 489.10
  C 778.04 490.14 779.60 491.92 780.03 495.20
  Q 780.56 499.19 780.57 502.59
  A 1.24 1.23 7.7 0 0 781.48 503.78
  Q 784.50 504.59 796.62 508.37
  Q 802.23 510.12 806.08 512.04
  C 810.33 514.16 810.34 526.80 810.73 530.21
  A 1.78 1.76 -84.4 0 0 811.93 531.69
  L 825.63 536.12
  A 1.45 1.45 0.0 0 1 826.57 537.94
  Q 822.10 552.04 815.86 565.62
  Q 815.05 567.38 814.02 568.42
  A 2.67 2.57 9.8 0 1 813.21 568.97
  C 781.41 582.35 746.42 591.24 712.25 591.78
  Q 691.55 592.11 681.94 591.55
  Q 676.04 591.20 654.26 588.74
  Q 634.21 586.47 614.83 581.93
  Q 597.59 577.89 565.15 568.25
  Q 524.09 556.05 481.98 546.77
  Q 480.82 546.52 462.50 543.54
  C 441.90 540.20 420.65 539.44 400.02 539.43
  Q 377.28 539.42 357.65 542.58
  Q 335.60 546.12 316.31 552.31
  A 1.79 1.76 54.8 0 1 314.69 552.02
  Q 309.59 548.01 304.57 543.43
  C 273.31 514.86 244.75 483.12 222.48 447.79
  Q 216.39 438.13 208.70 425.08
  Q 203.88 416.91 200.46 408.93
  C 199.61 406.95 200.46 405.36 202.78 405.05
  Q 208.81 404.23 220.01 404.65
  Q 303.22 407.79 389.01 422.57
  Q 399.00 424.30 420.82 428.37
  C 444.20 432.73 467.57 437.38 485.02 441.50
  C 502.84 445.70 515.02 448.28 531.61 452.43
  Q 579.01 464.29 624.87 477.29
  C 636.26 480.52 646.55 483.09 653.29 484.92
  C 661.22 487.08 670.54 490.29 679.28 492.57
  Q 684.37 493.90 689.72 495.49
  Q 774.02 520.52 782.24 523.01
  Q 790.91 525.63 804.16 529.23
  A 0.59 0.59 0.0 0 0 804.90 528.60
  L 804.02 519.05
  A 3.70 3.69 18.9 0 0 802.86 516.69
  Q 801.94 515.83 799.04 514.97
  Q 789.01 511.97 782.40 509.80
  A 0.67 0.67 0.0 0 0 781.53 510.48
  L 781.80 514.61
  A 0.45 0.45 0.0 0 1 781.23 515.07
  C 767.61 511.15 754.00 506.62 742.88 503.44
  Q 714.11 495.24 689.31 487.45
  Q 675.90 483.24 669.40 481.53
  C 660.81 479.28 652.63 476.49 642.87 473.59
  Q 597.81 460.16 543.74 446.09
  Q 529.38 442.35 510.89 437.92
  Q 477.68 429.98 465.61 427.63
  Q 444.74 423.56 436.13 421.76
  C 420.55 418.50 402.44 415.96 390.47 414.02
  Z" data-index="3"></path>
<path fill="#2ab3e5" d="
  M 678.96 602.94
  Q 684.04 603.77 689.20 603.99
  Q 696.21 604.29 698.56 605.06
  C 703.16 606.58 709.60 609.69 712.23 614.06
  Q 715.25 619.08 720.49 621.94
  Q 722.29 622.93 722.30 625.26
  Q 710.15 628.32 702.27 629.13
  Q 672.95 632.12 644.34 629.85
  Q 641.72 629.64 626.22 627.62
  Q 615.10 626.16 608.19 624.71
  Q 578.80 618.50 561.36 613.15
  Q 530.99 603.82 503.37 595.40
  C 490.86 591.58 474.54 586.78 459.02 583.60
  Q 426.79 577.00 416.53 575.42
  Q 410.13 574.44 404.75 574.01
  Q 378.61 571.95 357.75 572.59
  Q 355.77 572.65 327.46 574.20
  Q 317.81 574.73 308.11 576.45
  Q 288.85 579.88 282.54 581.05
  A 3.42 3.09 24.7 0 0 281.87 581.26
  L 277.18 583.36
  A 0.29 0.28 12.0 0 1 276.87 582.89
  Q 278.33 581.61 279.48 580.97
  Q 286.88 576.86 290.50 574.74
  Q 297.09 570.88 306.70 567.72
  C 313.80 565.38 325.30 560.41 333.68 558.33
  Q 340.83 556.55 350.75 555.32
  Q 356.35 554.63 361.54 553.44
  Q 368.52 551.83 373.01 551.47
  Q 395.30 549.68 418.25 550.85
  C 427.58 551.33 438.79 551.57 449.16 553.16
  Q 475.41 557.20 506.30 563.95
  Q 517.80 566.47 533.26 571.09
  Q 555.45 577.72 560.08 578.98
  Q 574.28 582.83 582.22 585.16
  C 593.42 588.45 603.07 590.66 612.60 593.12
  Q 617.44 594.36 624.93 595.61
  C 644.63 598.91 659.68 601.82 678.96 602.94
  Z" data-index="4"></path>
<path fill="#2ab3e5" d="
  M 722.30 625.26
  Q 722.29 622.93 720.49 621.94
  Q 715.25 619.08 712.23 614.06
  C 709.60 609.69 703.16 606.58 698.56 605.06
  Q 696.21 604.29 689.20 603.99
  Q 684.04 603.77 678.96 602.94
  Q 691.47 603.25 704.00 603.37
  Q 716.45 603.48 727.81 601.60
  Q 734.49 600.50 741.25 599.87
  Q 751.95 598.88 754.71 598.13
  Q 767.64 594.60 780.19 591.96
  Q 782.51 591.47 787.53 589.49
  Q 809.19 580.96 810.30 580.52
  A 0.29 0.29 0.0 0 1 810.65 580.93
  Q 810.11 581.83 808.87 582.88
  Q 792.36 596.83 776.50 605.73
  Q 774.02 607.12 772.81 607.54
  Q 764.53 610.41 761.49 612.25
  Q 756.54 615.24 751.98 616.70
  C 746.81 618.35 732.66 623.10 722.30 625.26
  Z" data-index="5"></path>
<path fill="#1679be" d="
  M 228.07 618.14
  A 0.18 0.18 0.0 0 1 227.91 617.82
  Q 235.84 612.30 244.66 607.67
  C 250.14 604.79 256.17 603.35 261.60 600.59
  Q 269.62 596.52 278.40 594.92
  Q 288.68 593.05 289.89 592.43
  Q 290.20 592.27 303.46 589.23
  Q 310.30 587.65 317.19 587.05
  Q 341.50 584.92 347.50 584.74
  Q 366.70 584.17 382.69 585.69
  Q 388.39 586.23 410.25 588.72
  Q 416.22 589.41 423.18 590.83
  Q 426.43 591.50 458.87 598.90
  Q 463.78 600.02 487.41 606.75
  Q 498.34 609.86 515.64 615.46
  Q 552.07 627.24 583.66 634.52
  Q 591.41 636.30 611.54 639.59
  C 635.65 643.52 660.76 643.76 684.50 642.69
  C 696.44 642.15 706.67 639.89 722.82 636.94
  Q 734.41 634.82 742.89 631.94
  Q 756.76 627.24 762.40 624.90
  Q 764.49 624.04 767.98 623.36
  A 0.31 0.31 0.0 0 1 768.33 623.77
  Q 768.01 624.60 767.37 625.12
  Q 744.61 643.69 722.00 653.48
  Q 709.37 658.95 690.35 663.98
  Q 674.22 668.24 657.44 669.29
  Q 629.17 671.05 608.03 669.09
  Q 597.70 668.13 578.64 664.96
  Q 565.67 662.80 549.62 658.75
  Q 524.12 652.32 500.74 644.46
  C 481.09 637.86 464.13 632.40 441.01 625.54
  Q 425.93 621.06 413.58 618.15
  Q 409.95 617.29 388.05 613.04
  Q 373.73 610.26 362.34 609.10
  Q 344.05 607.24 333.00 606.71
  Q 326.94 606.43 310.98 606.38
  Q 301.02 606.36 293.05 607.23
  Q 281.68 608.49 269.75 609.17
  Q 267.81 609.28 258.82 611.23
  C 248.39 613.49 237.74 614.87 228.07 618.14
  Z" data-index="6"></path>
</g>
<g>
<path fill="#f6f6f6" d="
  M 690.34 461.89
  A 0.35 0.35 0.0 0 1 689.91 462.07
  L 556.69 418.99
  A 0.71 0.71 0.0 0 1 556.34 417.89
  L 568.93 400.80
  A 1.33 1.32 -64.6 0 1 570.32 400.30
  Q 574.89 401.46 580.41 403.37
  Q 646.23 426.17 670.91 434.59
  Q 676.93 436.65 679.56 441.17
  Q 686.19 452.56 690.29 461.20
  Q 690.48 461.59 690.34 461.89
  Z" data-index="7"></path>
<path fill="#f6f6f6" d="
  M 716.05 456.59
  L 727.66 459.79
  A 0.82 0.82 0.0 0 1 728.26 460.58
  L 728.26 472.93
  A 0.57 0.57 0.0 0 1 727.42 473.43
  Q 724.79 472.02 723.17 469.82
  Q 719.05 464.18 715.57 457.18
  A 0.42 0.41 84.3 0 1 716.05 456.59
  Z" data-index="8"></path>
<path fill="#f6f6f6" d="
  M 734.47 462.05
  L 741.22 464.23
  A 0.80 0.80 0.0 0 1 741.77 464.99
  L 741.77 476.65
  A 0.80 0.80 0.0 0 1 740.72 477.41
  L 733.97 475.22
  A 0.80 0.80 0.0 0 1 733.42 474.46
  L 733.42 462.81
  A 0.80 0.80 0.0 0 1 734.47 462.05
  Z" data-index="9"></path>
<path fill="#f6f6f6" d="
  M 755.42 482.13
  A 0.19 0.18 -82.7 0 1 755.18 482.32
  L 747.25 479.76
  A 0.22 0.22 0.0 0 1 747.10 479.55
  L 747.10 467.79
  A 1.02 1.02 0.0 0 1 748.44 466.82
  L 752.95 468.27
  A 2.49 2.49 0.0 0 1 754.67 470.48
  L 755.42 482.13
  Z" data-index="10"></path>
<path fill="#f6f6f6" d="
  M 542.6559 482.7397
  A 8.55 8.09 -80.4 0 1 549.2067 492.5192
  A 8.55 8.09 -80.4 0 1 539.8041 499.6003
  A 8.55 8.09 -80.4 0 1 533.2533 489.8208
  A 8.55 8.09 -80.4 0 1 542.6559 482.7397
  Z" data-index="11"></path>
<path fill="#f6f6f6" d="
  M 579.4281 492.4739
  A 7.75 7.22 -85.5 0 1 586.0177 500.7665
  A 7.75 7.22 -85.5 0 1 578.2119 507.9261
  A 7.75 7.22 -85.5 0 1 571.6223 499.6335
  A 7.75 7.22 -85.5 0 1 579.4281 492.4739
  Z" data-index="12"></path>
<path fill="#f6f6f6" d="
  M 617.7475 501.6706
  A 7.73 7.24 -78.3 0 1 623.2696 510.7082
  A 7.73 7.24 -78.3 0 1 614.6125 516.8094
  A 7.73 7.24 -78.3 0 1 609.0904 507.7718
  A 7.73 7.24 -78.3 0 1 617.7475 501.6706
  Z" data-index="13"></path>
<path fill="#f6f6f6" d="
  M 654.3817 510.9933
  A 6.54 6.35 -83.4 0 1 659.9379 518.2199
  A 6.54 6.35 -83.4 0 1 652.8783 523.9867
  A 6.54 6.35 -83.4 0 1 647.3221 516.7601
  A 6.54 6.35 -83.4 0 1 654.3817 510.9933
  Z" data-index="14"></path>
<path fill="#f6f6f6" d="
  M 695.92 526.08
  A 5.91 5.91 0.0 0 1 690.01 531.99
  A 5.91 5.91 0.0 0 1 684.10 526.08
  A 5.91 5.91 0.0 0 1 690.01 520.17
  A 5.91 5.91 0.0 0 1 695.92 526.08
  Z" data-index="15"></path>
</g>
</svg>