<svg xmlns="http://www.w3.org/2000/svg" viewBox="190 360 650 320">
<clipPath id="c1">
<path d="M722.3 625.26C732.66 623.1 746.81 618.35 751.98 616.7Q756.54 615.24 761.49 612.25Q764.53 610.41 772.81 607.54Q774.02 607.12 776.5 605.73Q792.36 596.83 808.87 582.88Q810.11 581.83 810.65 580.93A.29.29 0 00810.3 580.52Q809.19 580.96 787.53 589.49Q782.51 591.47 780.19 591.96Q767.64 594.6 754.71 598.13Q751.95 598.88 741.25 599.87Q734.49 600.5 727.81 601.6Q716.45 603.48 704 603.37Q691.47 603.25 678.96 602.94C659.68 601.82 644.63 598.91 624.93 595.61Q617.44 594.36 612.6 593.12C603.07 590.66 593.42 588.45 582.22 585.16Q574.28 582.83 560.08 578.98Q555.45 577.72 533.26 571.09Q517.8 566.47 506.3 563.95Q475.41 557.2 449.16 553.16C438.79 551.57 427.58 551.33 418.25 550.85Q395.3 549.68 373.01 551.47Q368.52 551.83 361.54 553.44Q356.35 554.63 350.75 555.32Q340.83 556.55 333.68 558.33C325.3 560.41 313.8 565.38 306.7 567.72Q297.09 570.88 290.5 574.74Q286.88 576.86 279.48 580.97Q278.33 581.61 276.87 582.89A.29.28 12 00277.18 583.36L281.87 581.26A3.42 3.09 24.7 01282.54 581.05Q288.85 579.88 308.11 576.45Q317.81 574.73 327.46 574.2Q355.77 572.65 357.75 572.59Q378.61 571.95 404.75 574.01Q410.13 574.44 416.53 575.42Q426.79 577 459.02 583.6C474.54 586.78 490.86 591.58 503.37 595.4Q530.99 603.82 561.36 613.15Q578.8 618.5 608.19 624.71Q615.1 626.16 626.22 627.62Q641.72 629.64 644.34 629.85Q672.95 632.12 702.27 629.13Q710.15 628.32 722.3 625.26Z"/>
</clipPath>
<g stroke-width="5" fill="none" stroke-linecap="butt" clip-path="url(#c1)">
<path stroke="#2ab3e5" vector-effect="non-scaling-stroke" d="M678.96 602.94Q684.04 603.77 689.2 603.99Q696.21 604.29 698.56 605.06C703.16 606.58 709.6 609.69 712.23 614.06Q715.25 619.08 720.49 621.94Q722.29 622.93 722.3 625.26"/>
</g>
<g>
<path fill="#212121" d="M390.47 414.02A.4.4 0 01390.2 413.41C392.76 409.45 395.98 407.18 401.1 406.8C413.94 405.85 425.22 406.14 438.25 405.55C460.81 404.53 481.69 404.29 505.99 404.47Q511.28 404.5 518.94 406.91Q536.08 412.31 542.51 414.14A1.53 1.53 0 00544.16 413.58L556.64 396.65A.44.43 29.1 00556.45 395.99Q545.68 391.66 534.9 389.42Q530.13 388.43 521.25 389.07Q479.93 392.06 420.31 396.63Q419.02 396.73 417.49 396.63A.7.7 0 01416.99 395.49Q420.83 390.78 424.99 386.24C430.71 379.98 435.14 379.59 444.28 378.47Q479.06 374.18 527.51 371.31C538.56 370.65 546.55 371.5 557.13 374.97Q562.53 376.74 583.49 383.31A1.1 1.1 0 00584.87 382.6L586.58 377.3A.87.87 0 00585.94 376.18L571.58 372.86A.52.52 0 01571.38 371.94Q574.15 369.76 577.47 367.67C585.16 362.85 593.63 365.03 602.35 368Q610.16 370.66 618.37 373.47A2.36 2.35-69 01619.77 376.63L618.57 379.44A3.07 3.07 0 01615.05 381.23L597.99 377.29A1.06 1.06 0 00596.72 378.08L594.73 386.68A.87.87 0 00595.3 387.7Q612.92 393.63 637.81 402.49Q640.71 403.52 642.67 401.51Q646.23 397.88 652.98 391.95Q657.18 388.27 662.23 390.27Q663.91 390.94 681.33 396.41Q682.91 396.91 684.22 397.58A1.63 1.62-64.9 01684.97 399.66L678.66 414.42A1.29 1.28 21.7 00679.4 416.13C687.12 418.96 693.81 420.89 698.15 428.62Q704.2 439.41 707.15 444.34C709.04 447.49 710.34 448.5 713.97 449.63Q717.31 450.66 754.69 462.9Q759.91 464.61 760.05 469.89Q760.23 476.68 760.47 483.44A.92.91-82 00761.08 484.26Q766.97 486.22 775.12 489.1C778.04 490.14 779.6 491.92 780.03 495.2Q780.56 499.19 780.57 502.59A1.24 1.23 7.7 00781.48 503.78Q784.5 504.59 796.62 508.37Q802.23 510.12 806.08 512.04C810.33 514.16 810.34 526.8 810.73 530.21A1.78 1.76-84.4 00811.93 531.69L825.63 536.12A1.45 1.45 0 01826.57 537.94Q822.1 552.04 815.86 565.62Q815.05 567.38 814.02 568.42A2.67 2.57 9.8 01813.21 568.97C781.41 582.35 746.42 591.24 712.25 591.78Q691.55 592.11 681.94 591.55Q676.04 591.2 654.26 588.74Q634.21 586.47 614.83 581.93Q597.59 577.89 565.15 568.25Q524.09 556.05 481.98 546.77Q480.82 546.52 462.5 543.54C441.9 540.2 420.65 539.44 400.02 539.43Q377.28 539.42 357.65 542.58Q335.6 546.12 316.31 552.31A1.79 1.76 54.8 01314.69 552.02Q309.59 548.01 304.57 543.43C273.31 514.86 244.75 483.12 222.48 447.79Q216.39 438.13 208.7 425.08Q203.88 416.91 200.46 408.93C199.61 406.95 200.46 405.36 202.78 405.05Q208.81 404.23 220.01 404.65Q303.22 407.79 389.01 422.57Q399 424.3 420.82 428.37C444.2 432.73 467.57 437.38 485.02 441.5C502.84 445.7 515.02 448.28 531.61 452.43Q579.01 464.29 624.87 477.29C636.26 480.52 646.55 483.09 653.29 484.92C661.22 487.08 670.54 490.29 679.28 492.57Q684.37 493.9 689.72 495.49Q774.02 520.52 782.24 523.01Q790.91 525.63 804.16 529.23A.59.59 0 00804.9 528.6L804.02 519.05A3.7 3.69 18.9 00802.86 516.69Q801.94 515.83 799.04 514.97Q789.01 511.97 782.4 509.8A.67.67 0 00781.53 510.48L781.8 514.61A.45.45 0 01781.23 515.07C767.61 511.15 754 506.62 742.88 503.44Q714.11 495.24 689.31 487.45Q675.9 483.24 669.4 481.53C660.81 479.28 652.63 476.49 642.87 473.59Q597.81 460.16 543.74 446.09Q529.38 442.35 510.89 437.92Q477.68 429.98 465.61 427.63Q444.74 423.56 436.13 421.76C420.55 418.5 402.44 415.96 390.47 414.02Z"/>
<path fill="#2ab3e5" d="M678.96 602.94Q684.04 603.77 689.2 603.99Q696.21 604.29 698.56 605.06C703.16 606.58 709.6 609.69 712.23 614.06Q715.25 619.08 720.49 621.94Q722.29 622.93 722.3 625.26Q710.15 628.32 702.27 629.13Q672.95 632.12 644.34 629.85Q641.72 629.64 626.22 627.62Q615.1 626.16 608.19 624.71Q578.8 618.5 561.36 613.15Q530.99 603.82 503.37 595.4C490.86 591.58 474.54 586.78 459.02 583.6Q426.79 577 416.53 575.42Q410.13 574.44 404.75 574.01Q378.61 571.95 357.75 572.59Q355.77 572.65 327.46 574.2Q317.81 574.73 308.11 576.45Q288.85 579.88 282.54 581.05A3.42 3.09 24.7 00281.87 581.26L277.18 583.36A.29.28 12 01276.87 582.89Q278.33 581.61 279.48 580.97Q286.88 576.86 290.5 574.74Q297.09 570.88 306.7 567.72C313.8 565.38 325.3 560.41 333.68 558.33Q340.83 556.55 350.75 555.32Q356.35 554.63 361.54 553.44Q368.52 551.83 373.01 551.47Q395.3 549.68 418.25 550.85C427.58 551.33 438.79 551.57 449.16 553.16Q475.41 557.2 506.3 563.95Q517.8 566.47 533.26 571.09Q555.45 577.72 560.08 578.98Q574.28 582.83 582.22 585.16C593.42 588.45 603.07 590.66 612.6 593.12Q617.44 594.36 624.93 595.61C644.63 598.91 659.68 601.82 678.96 602.94Z"/>
<path fill="#2ab3e5" d="M722.3 625.26Q722.29 622.93 720.49 621.94Q715.25 619.08 712.23 614.06C709.6 609.69 703.16 606.58 698.56 605.06Q696.21 604.29 689.2 603.99Q684.04 603.77 678.96 602.94Q691.47 603.25 704 603.37Q716.45 603.48 727.81 601.6Q734.49 600.5 741.25 599.87Q751.95 598.88 754.71 598.13Q767.64 594.6 780.19 591.96Q782.51 591.47 787.53 589.49Q809.19 580.96 810.3 580.52A.29.29 0 01810.65 580.93Q810.11 581.83 808.87 582.88Q792.36 596.83 776.5 605.73Q774.02 607.12 772.81 607.54Q764.53 610.41 761.49 612.25Q756.54 615.24 751.98 616.7C746.81 618.35 732.66 623.1 722.3 625.26Z"/>
<path fill="#1679be" d="M228.07 618.14A.18.18 0 01227.91 617.82Q235.84 612.3 244.66 607.67C250.14 604.79 256.17 603.35 261.6 600.59Q269.62 596.52 278.4 594.92Q288.68 593.05 289.89 592.43Q290.2 592.27 303.46 589.23Q310.3 587.65 317.19 587.05Q341.5 584.92 347.5 584.74Q366.7 584.17 382.69 585.69Q388.39 586.23 410.25 588.72Q416.22 589.41 423.18 590.83Q426.43 591.5 458.87 598.9Q463.78 600.02 487.41 606.75Q498.34 609.86 515.64 615.46Q552.07 627.24 583.66 634.52Q591.41 636.3 611.54 639.59C635.65 643.52 660.76 643.76 684.5 642.69C696.44 642.15 706.67 639.89 722.82 636.94Q734.41 634.82 742.89 631.94Q756.76 627.24 762.4 624.9Q764.49 624.04 767.98 623.36A.31.31 0 01768.33 623.77Q768.01 624.6 767.37 625.12Q744.61 643.69 722 653.48Q709.37 658.95 690.35 663.98Q674.22 668.24 657.44 669.29Q629.17 671.05 608.03 669.09Q597.7 668.13 578.64 664.96Q565.67 662.8 549.62 658.75Q524.12 652.32 500.74 644.46C481.09 637.86 464.13 632.4 441.01 625.54Q425.93 621.06 413.58 618.15Q409.95 617.29 388.05 613.04Q373.73 610.26 362.34 609.1Q344.05 607.24 333 606.71Q326.94 606.43 310.98 606.38Q301.02 606.36 293.05 607.23Q281.68 608.49 269.75 609.17Q267.81 609.28 258.82 611.23C248.39 613.49 237.74 614.87 228.07 618.14Z"/>
</g>
<g>
<path fill="none" d="M690.34 461.89A.35.35 0 01689.91 462.07L556.69 418.99A.71.71 0 01556.34 417.89L568.93 400.8A1.33 1.32-64.6 01570.32 400.3Q574.89 401.46 580.41 403.37Q646.23 426.17 670.91 434.59Q676.93 436.65 679.56 441.17Q686.19 452.56 690.29 461.2Q690.48 461.59 690.34 461.89Z"/>
<path fill="none" d="M716.05 456.59L727.66 459.79A.82.82 0 01728.26 460.58L728.26 472.93A.57.57 0 01727.42 473.43Q724.79 472.02 723.17 469.82Q719.05 464.18 715.57 457.18A.42.41 84.3 01716.05 456.59Z"/>
<path fill="none" d="M734.47 462.05L741.22 464.23A.8.8 0 01741.77 464.99L741.77 476.65A.8.8 0 01740.72 477.41L733.97 475.22A.8.8 0 01733.42 474.46L733.42 462.81A.8.8 0 01734.47 462.05Z"/>
<path fill="none" d="M755.42 482.13A.19.18-82.7 01755.18 482.32L747.25 479.76A.22.22 0 01747.1 479.55L747.1 467.79A1.02 1.02 0 01748.44 466.82L752.95 468.27A2.49 2.49 0 01754.67 470.48L755.42 482.13Z"/>
<circle fill="none" cx="541" cy="491" r="8.3"/>
<circle fill="none" cx="579" cy="500" r="7.5"/>
<circle fill="none" cx="616" cy="509" r="7.5"/>
<circle fill="none" cx="653" cy="517" r="6.4"/>
<circle fill="none" cx="690" cy="526" r="5.9"/>
</g>
</svg>
